<svg width="335" height="68" viewBox="0 0 335 68" fill="none" xmlns="http://www.w3.org/2000/svg">
<circle cx="34" cy="34" r="32" fill="#1D2136" stroke="#C0B6FF" stroke-width="3"/>
<path d="M46.9173 53.2L41.0933 43.088C41.0933 39.3973 38.8107 37.0293 36.0373 37.0293C34.1173 37.0293 32.4533 38.096 31.6 39.6747C32.304 39.2693 33.136 39.056 34.0107 39.056C36.784 39.056 39.0453 41.3173 39.0453 44.0907C39.0453 46.8853 36.8053 49.168 34.0107 49.168H41.0507V53.2H22.896C22.384 53.2 21.8507 53.008 21.4667 52.6027C21.0878 52.2234 20.875 51.7093 20.875 51.1733C20.875 50.6373 21.0878 50.1232 21.4667 49.744L22.5333 48.6773C21.808 48.3573 21.2107 47.8667 20.6133 47.3547C20.144 48.4213 19.0773 49.168 17.84 49.168C17.0337 49.168 16.2605 48.8477 15.6904 48.2776C15.1203 47.7075 14.8 46.9342 14.8 46.128C14.8 45.3217 15.1203 44.5485 15.6904 43.9784C16.2605 43.4083 17.0337 43.088 17.84 43.088L18.8427 43.2587V39.056C18.8398 37.7273 19.0995 36.4111 19.6067 35.183C20.1138 33.9549 20.8586 32.839 21.7981 31.8995C22.7377 30.9599 23.8535 30.2152 25.0816 29.708C26.3097 29.2008 27.6259 28.9412 28.9547 28.944H28.9973C33.52 28.9653 37.04 30.736 37.04 27.9413C37.04 25.9573 37.4667 25.168 38.192 24.0587C36.6347 23.3333 34.864 22.8853 33.008 22.8853C31.8773 22.8853 30.9813 21.9893 30.9813 20.8587C30.9813 19.9413 31.5787 19.1733 32.4107 18.9173L30.9813 18.832C29.872 18.832 28.9547 17.936 28.9547 16.8267C28.9547 15.696 29.872 14.8 30.9813 14.8H33.008C37.488 14.8 41.4133 17.2533 43.5253 20.88L44.1227 20.8587C45.6373 20.8587 47.0453 21.3493 48.1973 22.16L49.1573 22.9707C53.7867 27.1307 53.2107 29.9467 53.2107 29.968C53.2107 32.6987 50.9493 34.9387 48.1973 34.9387L47.152 34.832V35.0027C47.152 37.3707 46.128 39.4827 44.528 40.976L51.5893 53.2H46.9173ZM47.152 24.912C46.0213 24.912 45.1253 25.808 45.1253 26.9173C45.1253 28.048 46.0213 28.944 47.152 28.944C48.2613 28.944 49.1787 28.048 49.1787 26.9173C49.1787 25.808 48.2613 24.912 47.152 24.912Z" fill="#C0B6FF"/>
<path d="M89.68 34.16H92.464C95.3653 34.16 96.816 33.328 96.816 31.664V26.576C96.816 24.912 95.3547 24.08 92.432 24.08C89.5307 24.08 88.08 24.912 88.08 26.576V45.424C88.08 45.9147 87.6533 46.16 86.8 46.16C85.9467 46.16 85.52 45.9147 85.52 45.424V26.896C85.52 25.1253 86.1493 23.8453 87.408 23.056C88.6667 22.2453 90.3413 21.84 92.432 21.84C94.5227 21.84 96.1973 22.2453 97.456 23.056C98.736 23.8453 99.376 25.1253 99.376 26.896V31.344C99.376 33.328 98.448 34.5653 96.592 35.056C97.0827 35.504 97.4667 36.2293 97.744 37.232C99.2587 42.672 100.016 45.456 100.016 45.584C100.016 45.968 99.6427 46.16 98.896 46.16C98.1493 46.16 97.7013 45.9147 97.552 45.424L95.536 38.128C95.344 37.3813 95.0773 36.912 94.736 36.72C94.3947 36.5067 93.648 36.4 92.496 36.4H89.68C89.2533 36.4 89.04 36.0267 89.04 35.28C89.04 34.5333 89.2533 34.16 89.68 34.16ZM108.674 27.376V42.256C108.674 42.9387 108.834 43.5787 109.154 44.176C109.474 44.752 109.634 45.0507 109.634 45.072C109.634 45.328 109.431 45.6053 109.026 45.904C108.62 46.1813 108.279 46.32 108.002 46.32C107.554 46.32 107.127 45.936 106.722 45.168C106.316 44.3787 106.114 43.5147 106.114 42.576V27.376C106.114 26.8853 106.54 26.64 107.394 26.64C108.247 26.64 108.674 26.8853 108.674 27.376ZM108.77 20.56V23.344C108.77 23.8773 108.3 24.144 107.362 24.144C106.444 24.144 105.986 23.8773 105.986 23.344V20.56C105.986 20.0267 106.444 19.76 107.362 19.76C108.3 19.76 108.77 20.0267 108.77 20.56ZM129.244 21.136V41.424C129.244 43.1947 128.614 44.4853 127.356 45.296C126.097 46.0853 124.422 46.48 122.332 46.48C120.241 46.48 118.556 46.0853 117.276 45.296C116.017 44.4853 115.388 43.1947 115.388 41.424V31.856C115.388 30.0853 116.017 28.8053 117.276 28.016C118.534 27.2053 120.209 26.8 122.3 26.8H125.084C125.51 26.8 125.724 27.1733 125.724 27.92C125.724 28.6667 125.51 29.04 125.084 29.04H122.3C119.398 29.04 117.948 29.872 117.948 31.536V41.744C117.948 43.408 119.398 44.24 122.3 44.24C125.222 44.24 126.684 43.408 126.684 41.744V21.136C126.684 20.6453 127.11 20.4 127.964 20.4C128.817 20.4 129.244 20.6453 129.244 21.136ZM149.806 21.136V41.424C149.806 43.1947 149.177 44.4853 147.918 45.296C146.659 46.0853 144.985 46.48 142.894 46.48C140.803 46.48 139.118 46.0853 137.838 45.296C136.579 44.4853 135.95 43.1947 135.95 41.424V31.856C135.95 30.0853 136.579 28.8053 137.838 28.016C139.097 27.2053 140.771 26.8 142.862 26.8H145.646C146.073 26.8 146.286 27.1733 146.286 27.92C146.286 28.6667 146.073 29.04 145.646 29.04H142.862C139.961 29.04 138.51 29.872 138.51 31.536V41.744C138.51 43.408 139.961 44.24 142.862 44.24C145.785 44.24 147.246 43.408 147.246 41.744V21.136C147.246 20.6453 147.673 20.4 148.526 20.4C149.379 20.4 149.806 20.6453 149.806 21.136ZM159.393 21.136V42.256C159.393 42.9387 159.553 43.5787 159.873 44.176C160.193 44.752 160.353 45.0507 160.353 45.072C160.353 45.328 160.15 45.6053 159.745 45.904C159.339 46.1813 158.998 46.32 158.721 46.32C158.273 46.32 157.846 45.936 157.441 45.168C157.035 44.3787 156.833 43.5147 156.833 42.576V21.136C156.833 20.6453 157.259 20.4 158.113 20.4C158.966 20.4 159.393 20.6453 159.393 21.136ZM180.122 31.312V32.272C180.122 34.0853 179.749 35.3333 179.002 36.016C178.256 36.6987 176.89 37.136 174.906 37.328L168.666 37.936V41.744C168.666 43.408 170.053 44.24 172.826 44.24C175.984 44.24 177.562 43.5147 177.562 42.064V40.848C177.562 40.3573 177.989 40.112 178.842 40.112C179.696 40.112 180.122 40.3573 180.122 40.848V41.744C180.122 44.9013 177.776 46.48 173.082 46.48C171.013 46.48 169.328 46.0747 168.026 45.264C166.746 44.4533 166.106 43.1733 166.106 41.424V31.376C166.106 29.6053 166.789 28.3253 168.154 27.536C169.52 26.7253 171.301 26.32 173.498 26.32C175.696 26.32 177.349 26.704 178.458 27.472C179.568 28.24 180.122 29.52 180.122 31.312ZM168.666 31.056V35.696L174.682 35.088C175.898 34.96 176.677 34.704 177.018 34.32C177.381 33.936 177.562 33.2533 177.562 32.272V31.056C177.562 29.392 176.08 28.56 173.114 28.56C170.149 28.56 168.666 29.392 168.666 31.056ZM202.836 34.8H205.62C208.522 34.8 209.972 33.968 209.972 32.304V26.576C209.972 24.912 208.511 24.08 205.588 24.08C202.687 24.08 201.236 24.912 201.236 26.576V45.424C201.236 45.9147 200.81 46.16 199.956 46.16C199.103 46.16 198.676 45.9147 198.676 45.424V26.896C198.676 25.1253 199.306 23.8453 200.564 23.056C201.823 22.2453 203.498 21.84 205.588 21.84C207.679 21.84 209.354 22.2453 210.612 23.056C211.892 23.8453 212.532 25.1253 212.532 26.896V31.984C212.532 33.7547 211.903 35.0453 210.644 35.856C209.386 36.6453 207.711 37.04 205.62 37.04H202.836C202.41 37.04 202.196 36.6667 202.196 35.92C202.196 35.1733 202.41 34.8 202.836 34.8ZM229.277 41.744V31.056C229.277 29.392 227.816 28.56 224.893 28.56C221.992 28.56 220.541 29.392 220.541 31.056V41.744C220.541 43.408 221.992 44.24 224.893 44.24C227.816 44.24 229.277 43.408 229.277 41.744ZM231.837 31.376V41.424C231.837 43.1947 231.208 44.4853 229.949 45.296C228.691 46.0853 227.016 46.48 224.925 46.48C222.835 46.48 221.149 46.0853 219.869 45.296C218.611 44.4853 217.981 43.1947 217.981 41.424V31.376C217.981 29.6053 218.611 28.3253 219.869 27.536C221.128 26.7253 222.803 26.32 224.893 26.32C226.984 26.32 228.659 26.7253 229.917 27.536C231.197 28.3253 231.837 29.6053 231.837 31.376ZM247.063 32.656V31.056C247.063 29.392 246.071 28.56 244.087 28.56C242.103 28.56 241.111 29.392 241.111 31.056V45.744C241.111 46.2347 240.685 46.48 239.831 46.48C238.978 46.48 238.551 46.2347 238.551 45.744V31.376C238.551 29.6053 239.053 28.3253 240.055 27.536C241.079 26.7253 242.423 26.32 244.087 26.32C247.778 26.32 249.623 27.984 249.623 31.312V32.656C249.623 33.1467 249.197 33.392 248.343 33.392C247.49 33.392 247.063 33.1467 247.063 32.656ZM257.61 23.056V26.8H260.97C261.397 26.8 261.61 27.1733 261.61 27.92C261.61 28.6667 261.397 29.04 260.97 29.04H257.61V42.256C257.61 42.9387 257.77 43.5787 258.09 44.176C258.41 44.752 258.57 45.0507 258.57 45.072C258.57 45.328 258.367 45.6053 257.962 45.904C257.557 46.1813 257.215 46.32 256.938 46.32C256.49 46.32 256.063 45.936 255.658 45.168C255.253 44.3787 255.05 43.5147 255.05 42.576V29.04H252.49C252.063 29.04 251.85 28.6667 251.85 27.92C251.85 27.1733 252.063 26.8 252.49 26.8H255.05V23.056C255.05 22.5653 255.477 22.32 256.33 22.32C257.183 22.32 257.61 22.5653 257.61 23.056ZM265.123 26.8H267.363V24.976C267.363 21.6053 269.56 19.92 273.955 19.92H275.075C275.501 19.92 275.715 20.2933 275.715 21.04C275.715 21.7867 275.501 22.16 275.075 22.16H273.955C271.267 22.16 269.923 22.992 269.923 24.656V26.8H273.603C274.029 26.8 274.243 27.1733 274.243 27.92C274.243 28.6667 274.029 29.04 273.603 29.04H269.923V49.296C269.923 50.6613 269.72 51.7813 269.315 52.656C268.931 53.552 268.504 54 268.035 54C267.757 54 267.416 53.8507 267.011 53.552C266.605 53.2747 266.403 53.008 266.403 52.752C266.403 52.688 266.488 52.528 266.659 52.272C267.128 51.4613 267.363 50.3627 267.363 48.976V29.04H265.123C264.696 29.04 264.483 28.6667 264.483 27.92C264.483 27.1733 264.696 26.8 265.123 26.8ZM289.371 41.744V31.056C289.371 29.392 287.91 28.56 284.987 28.56C282.086 28.56 280.635 29.392 280.635 31.056V41.744C280.635 43.408 282.086 44.24 284.987 44.24C287.91 44.24 289.371 43.408 289.371 41.744ZM291.931 31.376V41.424C291.931 43.1947 291.302 44.4853 290.043 45.296C288.784 46.0853 287.11 46.48 285.019 46.48C282.928 46.48 281.243 46.0853 279.963 45.296C278.704 44.4853 278.075 43.1947 278.075 41.424V31.376C278.075 29.6053 278.704 28.3253 279.963 27.536C281.222 26.7253 282.896 26.32 284.987 26.32C287.078 26.32 288.752 26.7253 290.011 27.536C291.291 28.3253 291.931 29.6053 291.931 31.376ZM301.205 21.136V42.256C301.205 42.9387 301.365 43.5787 301.685 44.176C302.005 44.752 302.165 45.0507 302.165 45.072C302.165 45.328 301.962 45.6053 301.557 45.904C301.152 46.1813 300.81 46.32 300.533 46.32C300.085 46.32 299.658 45.936 299.253 45.168C298.848 44.3787 298.645 43.5147 298.645 42.576V21.136C298.645 20.6453 299.072 20.4 299.925 20.4C300.778 20.4 301.205 20.6453 301.205 21.136ZM310.799 27.376V42.256C310.799 42.9387 310.959 43.5787 311.279 44.176C311.599 44.752 311.759 45.0507 311.759 45.072C311.759 45.328 311.556 45.6053 311.151 45.904C310.745 46.1813 310.404 46.32 310.127 46.32C309.679 46.32 309.252 45.936 308.847 45.168C308.441 44.3787 308.239 43.5147 308.239 42.576V27.376C308.239 26.8853 308.665 26.64 309.519 26.64C310.372 26.64 310.799 26.8853 310.799 27.376ZM310.895 20.56V23.344C310.895 23.8773 310.425 24.144 309.487 24.144C308.569 24.144 308.111 23.8773 308.111 23.344V20.56C308.111 20.0267 308.569 19.76 309.487 19.76C310.425 19.76 310.895 20.0267 310.895 20.56ZM328.809 41.744V31.056C328.809 29.392 327.347 28.56 324.425 28.56C321.523 28.56 320.073 29.392 320.073 31.056V41.744C320.073 43.408 321.523 44.24 324.425 44.24C327.347 44.24 328.809 43.408 328.809 41.744ZM331.369 31.376V41.424C331.369 43.1947 330.739 44.4853 329.481 45.296C328.222 46.0853 326.547 46.48 324.457 46.48C322.366 46.48 320.681 46.0853 319.401 45.296C318.142 44.4853 317.513 43.1947 317.513 41.424V31.376C317.513 29.6053 318.142 28.3253 319.401 27.536C320.659 26.7253 322.334 26.32 324.425 26.32C326.515 26.32 328.19 26.7253 329.449 27.536C330.729 28.3253 331.369 29.6053 331.369 31.376Z" fill="#C0B6FF"/>
</svg>
